# xmcd
#
# Track frame offsets:
# 150
# 18283
# 32491
# 48522
# 63686
# 80527
# 98010
# 112813
# 130928
# 148538
# 165474
# 182081
# 201968
#
# Disc length: 2859 seconds
#
#
# Revision: 0
# Processed by: cddbd v1.5.2PL0 Copyright (c) Steve Scherf et al.
# Submitted via: FreeRIP 2.951 
#
DISCID=a80b290d
DTITLE=Bruno Deneckere - Someday
DYEAR=2007
DGENRE=
TTITLE0=Someday
TTITLE1=When The Time Is Right
TTITLE2=Diamond
TTITLE3=Big Oak Tree
TTITLE4=Tender Rose
TTITLE5=Blue Sky Over Nashville
TTITLE6=Jenny, Last Night
TTITLE7=Dreamin' About You
TTITLE8=Liberty Road
TTITLE9=Tell Her I'm Gone
TTITLE10=No Man's Land
TTITLE11=Robin
TTITLE12=In Your Lovin' Arms
EXTD=
EXTT0=
EXTT1=
EXTT2=
EXTT3=
EXTT4=
EXTT5=
EXTT6=
EXTT7=
EXTT8=
EXTT9=
EXTT10=
EXTT11=
EXTT12=
PLAYORDER=
